<svg xmlns="http://www.w3.org/2000/svg" viewBox="0 0 450 450"><defs><style>.cls-1{fill:#f7931e;fill-rule:evenodd;}</style></defs><g id="Layer_2" data-name="Layer 2"><g id="Layer_1-2" data-name="Layer 1"><path class="cls-1" d="M378.21,0H71.79A72,72,0,0,0,0,71.79V378.21A72,72,0,0,0,71.79,450H378.21A72,72,0,0,0,450,378.21V71.79A72,72,0,0,0,378.21,0ZM150.73,349.75H100.1v-170h50.63Zm-25.63-195c-16.88,0-30-13.75-30-30.63s13.12-30.63,30-30.63a30.63,30.63,0,0,1,0,61.26Zm225.05,195h-50V257.86c-.31-9.69-3.75-18.29-9.53-24.46a31.61,31.61,0,0,0-23.6-9.93,36.64,36.64,0,0,0-25.16,9.93,35,35,0,0,0-11.1,24.46v91.89h-50v-170h50v23.76a57.87,57.87,0,0,1,48.14-25.63h13.75c31.88,0,57.51,26.26,57.51,57.51Z"/></g></g></svg>