<svg xmlns="http://www.w3.org/2000/svg" viewBox="0 0 231.33 160"><defs><style>.cls-1,.cls-3{fill:#fff;}.cls-2{fill:#f7931e;}.cls-3{opacity:0.47;isolation:isolate;}</style></defs><g id="Layer_2" data-name="Layer 2"><g id="Layer_1-2" data-name="Layer 1"><g id="Layer_2-2" data-name="Layer 2"><g id="Layer_1-2-2" data-name="Layer 1-2"><rect class="cls-1" width="231.33" height="160" rx="12"/><rect x="132.02" y="73.66" width="46.67" height="16.08"/><rect x="132.02" y="108.18" width="80.55" height="16.08"/><polygon class="cls-2" points="197.94 55.22 132.01 55.22 132.01 39.15 212.03 39.15 197.94 55.22"/><path class="cls-3" d="M102.43,73.59H55.69a8,8,0,0,1-1.1-.08h45.89C101.17,73.51,101.79,73.54,102.43,73.59Z"/><path d="M125.85,98.89a25.37,25.37,0,0,1-25.37,25.37H8.17l10.29-16.08h82.22a8.74,8.74,0,0,0,8.74-8.74h0v-1a8.74,8.74,0,0,0-8.74-8.74H56.27A25.37,25.37,0,1,1,54,39c.75,0,1.5,0,2.26,0h62V55.16H55.69a8.28,8.28,0,0,0-8.28,8.28v1.88a8.25,8.25,0,0,0,7.18,8.2,8,8,0,0,0,1.1.08h46.74a25.32,25.32,0,0,1,15.83,7.19c0,.06.11.11.17.17A25.27,25.27,0,0,1,125.85,98.89Z"/><path class="cls-3" d="M102.43,73.59H55.69a8,8,0,0,1-1.1-.08h45.89C101.17,73.51,101.79,73.54,102.43,73.59Z"/><path class="cls-3" d="M102.43,73.59H55.69a8,8,0,0,1-1.1-.08h45.89C101.17,73.51,101.79,73.54,102.43,73.59Z"/><path class="cls-3" d="M124.28,64.37v.94a8.91,8.91,0,0,1-.1,1.26C124.25,65.84,124.28,65.11,124.28,64.37Z"/></g></g></g></g></svg>