<svg xmlns="http://www.w3.org/2000/svg" viewBox="0 0 419.85 87.39"><defs><style>.cls-1,.cls-4{fill:#f7931e;}.cls-2{fill:#fff;opacity:0.47;}.cls-3{font-size:47px;}.cls-3,.cls-4{font-family:Poppins-Medium, Poppins;font-weight:500;}.cls-4{font-size:24.09px;}</style></defs><g id="Layer_2" data-name="Layer 2"><g id="Layer_1-2" data-name="Layer 1"><rect x="123.85" y="34.66" width="46.67" height="16.08"/><rect x="123.85" y="69.18" width="80.55" height="16.08"/><polygon class="cls-1" points="189.78 16.22 123.85 16.22 123.85 0.15 203.86 0.15 189.78 16.22"/><path class="cls-2" d="M94.26,34.59H47.52a7.91,7.91,0,0,1-1.1-.08H92.31C93,34.51,93.62,34.54,94.26,34.59Z"/><path d="M117.68,59.89A25.37,25.37,0,0,1,92.31,85.26H0L10.29,69.18H92.51a8.74,8.74,0,0,0,8.74-8.75v-1a8.74,8.74,0,0,0-8.74-8.74H48.1A25.37,25.37,0,1,1,48.1,0h62.05V16.16H47.52a8.28,8.28,0,0,0-8.28,8.28v1.88a8.26,8.26,0,0,0,7.18,8.2,7.91,7.91,0,0,0,1.1.08H94.26a25.31,25.31,0,0,1,15.83,7.19c0,.06.11.11.17.17A25.28,25.28,0,0,1,117.68,59.89Z"/><path class="cls-2" d="M94.26,34.59H47.52a7.91,7.91,0,0,1-1.1-.08H92.31C93,34.51,93.62,34.54,94.26,34.59Z"/><path class="cls-2" d="M94.26,34.59H47.52a7.91,7.91,0,0,1-1.1-.08H92.31C93,34.51,93.62,34.54,94.26,34.59Z"/><path class="cls-2" d="M116.11,25.37v.94a7.48,7.48,0,0,1-.1,1.26C116.08,26.84,116.11,26.11,116.11,25.37Z"/><text class="cls-3" transform="translate(223.59 42.76)">Singitan</text><text class="cls-4" transform="translate(226.05 73.37)">Engineering PLC</text></g></g></svg>